<svg width="22" height="22" viewBox="0 0 22 22" fill="none" xmlns="http://www.w3.org/2000/svg">
<path d="M19.8016 10.0534C19.7702 9.76819 19.5078 9.56908 19.2294 9.595C18.961 9.62404 18.7637 9.85323 18.7665 10.1177C18.7665 10.1332 18.7665 10.1501 18.7684 10.1667C18.7818 10.2797 18.7896 10.3513 18.7974 10.4666H16.0721C16.0425 10.4666 16.0101 10.4705 15.9811 10.4736C14.6317 10.5442 13.5448 11.6139 13.4525 12.9589C13.4484 12.9719 13.4466 12.9898 13.4455 13.0074C13.4432 13.0203 13.4432 13.0364 13.4432 13.0522V18.3842C13.124 18.4881 12.8002 18.5732 12.4703 18.6349C12.4781 18.2566 12.4781 17.7402 12.4805 17.0285V3.33933C12.5632 3.35644 12.6477 3.37251 12.7304 3.3917C12.7387 3.39325 12.7488 3.39559 12.7582 3.39662C12.9832 3.44873 13.2044 3.51381 13.423 3.58536V10.5817C13.7362 10.309 14.0927 10.0832 14.4832 9.91571L14.4814 8.17089L14.479 7.47063V4.01962C15.7184 4.64289 16.7822 5.59048 17.5531 6.79785C17.7374 7.0877 17.906 7.39545 18.0507 7.70733C18.1411 7.89634 18.3255 8.00808 18.5241 8.00808C18.5962 8.00808 18.6701 7.99174 18.7417 7.95778C18.9999 7.84008 19.1135 7.53 18.9929 7.27022C18.8285 6.9153 18.6395 6.56841 18.4274 6.23915C17.4048 4.64081 15.9279 3.43888 14.2104 2.7674C14.1878 2.75547 14.1679 2.74433 14.1458 2.73422C14.0709 2.70518 13.9957 2.68236 13.919 2.65644V2.65566C13.305 2.44151 12.6695 2.28984 12.0223 2.2157C12.0135 2.21492 12.0088 2.2157 12.0029 2.2157C11.9811 2.21492 11.9603 2.21155 11.9409 2.21155C11.6855 2.21155 11.4599 2.40677 11.4272 2.67018V19.3325C11.4597 19.5957 11.6832 19.7894 11.9427 19.7894C11.9616 19.7894 11.9811 19.7894 12.0031 19.787C14.1124 19.5446 16.0288 18.5631 17.447 17.0319C17.8087 16.6443 18.1367 16.2193 18.4277 15.7643C18.6398 15.4346 18.829 15.0859 18.9932 14.7315C19.1137 14.4738 19.0002 14.1629 18.7419 14.0442C18.4824 13.9231 18.1715 14.0353 18.0509 14.2964C17.9062 14.6086 17.7377 14.9122 17.5534 15.2031C17.0444 16.0021 16.4068 16.6871 15.6751 17.2382C15.3004 17.5224 14.9004 17.7713 14.4795 17.9823V13.145C14.4795 12.2402 15.2154 11.506 16.1185 11.506C16.1255 11.506 16.1369 11.5037 16.1439 11.5037H18.7977C18.794 11.5576 18.7899 11.612 18.7865 11.6665C18.7611 11.9514 18.9714 12.2032 19.2581 12.2255C19.2747 12.2265 19.2877 12.2265 19.303 12.2265C19.5695 12.2265 19.7954 12.0256 19.8208 11.7549C19.8268 11.6758 19.8332 11.5955 19.8366 11.5156C19.8478 11.3383 19.8537 11.1612 19.8537 10.9831C19.8537 10.6598 19.8353 10.3746 19.8019 10.0534H19.8016Z" fill="#A8B0B9"/>
<path d="M11.0004 0C4.9334 0 0 4.93397 0 11.0004C0 17.0668 4.9334 22 11.0004 22C17.0674 22 22 17.0653 22 11.0004C22 4.93553 17.0666 0 11.0004 0ZM11.0004 20.9635C5.50668 20.9635 1.0361 16.4933 1.0361 11.0004C1.0361 5.50745 5.50668 1.03808 11.0004 1.03808C16.4941 1.03808 20.9639 5.50823 20.9639 11.0004C20.9639 16.4925 16.4957 20.9635 11.0004 20.9635Z" fill="#A8B0B9"/>
<path d="M10.5476 19.2828C10.5489 19.3175 10.5471 19.3531 10.5406 19.3896C10.494 19.6385 10.2777 19.8145 10.0306 19.8145C10.0104 19.8145 9.98993 19.8145 9.97152 19.8109C9.24267 19.7269 8.52757 19.5527 7.84383 19.2921C7.64237 19.2154 7.50988 19.0233 7.50988 18.8076V12.1285C7.88221 11.9914 8.22965 11.8083 8.54649 11.5885V18.4425C8.86282 18.5465 9.18537 18.6305 9.51285 18.6938C9.51051 18.4698 9.51051 18.1968 9.51051 17.8634V3.39173C9.17941 3.45525 8.85556 3.53977 8.53768 3.64529C8.54131 3.93462 8.54468 4.37355 8.54468 5.05203C8.54649 5.87311 8.54649 7.04237 8.54649 8.71589C8.54649 8.74571 8.54286 8.77474 8.53768 8.80248C8.54312 8.82945 8.54597 8.85589 8.54597 8.88415C8.54597 10.3606 7.34497 11.5607 5.8699 11.5607H3.3297C3.2908 11.5607 3.25295 11.5553 3.21613 11.5475C3.24102 11.9232 3.29184 12.2942 3.36859 12.6582C3.55942 13.5677 3.91179 14.4383 4.41817 15.229C4.57115 15.4691 4.50088 15.7898 4.25923 15.9446C4.17237 15.9995 4.07721 16.0255 3.98154 16.0255C3.80963 16.0255 3.64239 15.9404 3.54231 15.7862C2.72193 14.4997 2.25263 13.0287 2.17355 11.5037C2.16525 11.351 2.16162 11.1965 2.16162 11.043C2.16162 9.35497 2.63922 7.71463 3.54231 6.29829C3.6971 6.05744 4.01861 5.98692 4.25923 6.14092C4.50088 6.29518 4.57141 6.61615 4.41817 6.85622C3.70955 7.96404 3.29988 9.22845 3.21587 10.5374C3.25243 10.5292 3.29028 10.5242 3.32944 10.5242H5.86964C6.77273 10.5242 7.50858 9.78845 7.50858 8.88415C7.50858 8.85511 7.51402 8.82711 7.51739 8.79911C7.51376 8.77293 7.50962 8.74493 7.50962 8.71615C7.50962 8.71615 7.50962 6.11552 7.50832 4.51225V3.28155C7.50832 3.21673 7.52076 3.15088 7.54488 3.08918C7.59803 2.95203 7.70615 2.84521 7.8415 2.79232C8.52523 2.53021 9.2393 2.35858 9.96633 2.27355C10.2754 2.24114 10.5469 2.48303 10.5469 2.78895V11.0542C10.5469 14.243 10.5469 19.0443 10.5474 19.2831L10.5476 19.2828Z" fill="#A8B0B9"/>
</svg>
