<svg width="20" height="24" viewBox="0 0 20 24" fill="none" xmlns="http://www.w3.org/2000/svg">
<path d="M19.9238 3.54022C19.7847 3.39509 16.4538 0 10.0008 0C3.54783 0 0.215321 3.39509 0.0778468 3.54022L0 3.6205V15.186L2.71139 17.5529C2.6617 17.9327 2.5706 19.2018 3.20331 21.1302C3.23478 21.2259 3.32919 21.2907 3.43685 21.2907H3.44182C4.58634 21.2676 5.62816 21.1286 6.56563 20.9171L9.33333 23.3333L19.8874 15.2818L20 15.1969V3.6205L19.9222 3.54022H19.9238ZM3.17019 17.9543C3.36729 18.1071 3.57101 18.243 3.77971 18.3588C4.24017 18.6151 4.80166 18.5997 5.24555 18.3156C5.69275 18.03 5.91304 17.5421 5.82195 17.0449C5.76729 16.7454 5.85673 16.4443 6.07039 16.222C6.49772 15.7727 6.87867 15.1783 7.45673 14.2798C7.8675 13.6375 8.36439 12.8655 9.04679 11.8728C9.31677 15.2926 11.7466 16.73 12.6161 17.136C11.8675 17.9358 8.93416 20.6623 3.61739 20.8306C3.19669 19.4812 3.15031 18.4854 3.17019 17.9543ZM9.36315 22.5784L7.25963 20.7426C8.2352 20.4709 9.0882 20.1204 9.82029 19.7468L11.5793 20.8878L9.36315 22.5784ZM19.3921 14.9267L18.4977 15.6091C18.3072 14.8927 17.6282 12.3344 17.6282 12.0951C17.6282 12.0117 17.7507 11.4868 17.865 10.7179L14.5325 10.6886C14.2642 10.7843 14.1284 11.1224 14.2923 11.3926C14.6932 12.0565 14.7843 12.8763 14.0406 13.3256C13.436 13.6915 12.6079 13.4553 12.2733 12.8223C11.9983 12.3004 12.2236 11.8419 12.4836 11.3756C12.6327 11.107 12.4969 10.7843 12.2385 10.6886H9.3499V10.6083V9.46735V7.75205C9.4029 7.51583 9.62319 7.36298 9.8501 7.38768C9.90973 7.39849 9.96936 7.4201 10.0306 7.45407C10.2195 7.55905 10.4 7.66095 10.5822 7.72271C10.8555 7.81843 11.1371 7.83387 11.4402 7.66404C12.0563 7.31975 12.2849 6.46596 11.9288 5.8453C11.4899 5.07951 10.6932 5.17369 10.0505 5.58746C9.77226 5.76656 9.42112 5.59981 9.35155 5.29103V1.36946C8.85797 1.4621 8.3528 1.58715 7.83603 1.74618C4.03975 2.91184 3.49979 6.19886 3.49979 6.19886C3.49979 6.19886 2.61698 7.92188 2.70311 8.0809C2.78923 8.23993 3.10228 9.61865 3.07246 9.72364C3.04431 9.83017 2.07702 11.3401 2.07702 11.3401C2.07702 11.3401 1.31014 12.1615 1.48075 12.6911C1.65135 13.2206 2.93002 13.0616 2.93002 13.0616L2.3619 14.4666C2.3619 14.4666 3.01615 14.6781 2.70311 15.0502C2.39006 15.4207 2.61863 15.66 2.98799 15.8453C3.35735 16.0306 3.49979 16.5339 3.49979 16.5339L3.1089 17.1175L0.612836 14.939V3.84437C1.13954 3.34723 4.35445 0.568164 10.0008 0.568164C15.6472 0.568164 18.8621 3.34723 19.3921 3.84283V14.9282V14.9267Z" fill="#B1B8C0"/>
</svg>
