<svg width="22" height="20" viewBox="0 0 22 20" fill="none" xmlns="http://www.w3.org/2000/svg">
<path d="M22 6.10667C20.8101 7.30667 19.9111 8.21333 18.9856 9.14667C19.9111 10.1067 20.8101 10.9867 22 12.2133V20H16.1034V12.5067C15.9976 12.4 15.9183 12.32 15.8389 12.24L15.363 11.7333C15.2837 11.6533 15.2043 11.5733 15.0986 11.4667H6.90144C6.79567 11.5733 6.71635 11.6533 6.63702 11.7333L5.89664 12.5067V20H0V12.2133C1.1899 10.9867 2.08894 10.1067 3.01442 9.14667L0 6.10667V0H5.89664V5.78667C6.0024 5.89333 6.08173 5.97333 6.16106 6.05333L6.63702 6.56C6.71635 6.64 6.79567 6.72 6.90144 6.82667H15.0986C15.2043 6.72 15.2837 6.64 15.363 6.56L15.8389 6.05333C15.9183 5.97333 15.9976 5.89333 16.1034 5.78667V0H22V6.10667Z" fill="#A8B0B9"/>
</svg>
