<svg width="14" height="14" viewBox="0 0 14 14" fill="none" xmlns="http://www.w3.org/2000/svg">
<path fill-rule="evenodd" clip-rule="evenodd" d="M2.5 0.5C1.96957 0.5 1.46086 0.710714 1.08579 1.08579C0.710714 1.46086 0.5 1.96957 0.5 2.5V5.37867C0.500113 5.90906 0.710901 6.41768 1.086 6.79267L7.47267 13.18C8.086 13.7933 9.066 13.9707 9.838 13.4653C11.2836 12.5187 12.5184 11.2841 13.4653 9.83867C13.9707 9.06533 13.7933 8.086 13.18 7.47333L6.79333 1.086C6.60758 0.90019 6.38704 0.752801 6.1443 0.652253C5.90157 0.551705 5.6414 0.499969 5.37867 0.5H2.5ZM3.25 4C3.44891 4 3.63968 3.92098 3.78033 3.78033C3.92098 3.63968 4 3.44891 4 3.25C4 3.05109 3.92098 2.86032 3.78033 2.71967C3.63968 2.57902 3.44891 2.5 3.25 2.5C3.05109 2.5 2.86032 2.57902 2.71967 2.71967C2.57902 2.86032 2.5 3.05109 2.5 3.25C2.5 3.44891 2.57902 3.63968 2.71967 3.78033C2.86032 3.92098 3.05109 4 3.25 4Z" fill="#4F5B67"/>
</svg>
