<svg width="26" height="26" viewBox="0 0 26 26" fill="none" xmlns="http://www.w3.org/2000/svg">
<path fill-rule="evenodd" clip-rule="evenodd" d="M13.0002 25.8C16.395 25.8 19.6507 24.4514 22.0512 22.0509C24.4516 19.6505 25.8002 16.3947 25.8002 13C25.8002 9.60518 24.4516 6.34945 22.0512 3.94898C19.6507 1.54852 16.395 0.199951 13.0002 0.199951C9.60542 0.199951 6.34969 1.54852 3.94923 3.94898C1.54876 6.34945 0.200195 9.60518 0.200195 13C0.200195 16.3947 1.54876 19.6505 3.94923 22.0509C6.34969 24.4514 9.60542 25.8 13.0002 25.8ZM10.9314 8.66875C10.6296 8.3773 10.2255 8.21603 9.80595 8.21967C9.38644 8.22332 8.98514 8.39159 8.68849 8.68824C8.39183 8.98489 8.22356 9.3862 8.21992 9.80571C8.21627 10.2252 8.37754 10.6294 8.669 10.9312L10.7378 13L8.669 15.0688C8.51618 15.2163 8.39429 15.3929 8.31043 15.5881C8.22658 15.7833 8.18244 15.9933 8.18059 16.2057C8.17875 16.4182 8.21923 16.6288 8.29968 16.8255C8.38013 17.0221 8.49893 17.2008 8.64916 17.351C8.79939 17.5012 8.97803 17.62 9.17467 17.7005C9.3713 17.7809 9.58199 17.8214 9.79444 17.8196C10.0069 17.8177 10.2168 17.7736 10.412 17.6897C10.6072 17.6059 10.7838 17.484 10.9314 17.3312L13.0002 15.2624L15.069 17.3312C15.3708 17.6226 15.7749 17.7839 16.1944 17.7802C16.614 17.7766 17.0153 17.6083 17.3119 17.3117C17.6086 17.015 17.7768 16.6137 17.7805 16.1942C17.7841 15.7747 17.6228 15.3705 17.3314 15.0688L15.2626 13L17.3314 10.9312C17.6228 10.6294 17.7841 10.2252 17.7805 9.80571C17.7768 9.3862 17.6086 8.98489 17.3119 8.68824C17.0153 8.39159 16.614 8.22332 16.1944 8.21967C15.7749 8.21603 15.3708 8.3773 15.069 8.66875L13.0002 10.7376L10.9314 8.66875Z" fill="#000C79"/>
</svg>
