<svg width="24" height="24" viewBox="0 0 24 24" fill="none" xmlns="http://www.w3.org/2000/svg">
<path d="M8.3999 10.8C8.3999 10.1635 8.65276 9.55306 9.10285 9.10297C9.55293 8.65288 10.1634 8.40002 10.7999 8.40002H17.9999C18.6364 8.40002 19.2469 8.65288 19.697 9.10297C20.147 9.55306 20.3999 10.1635 20.3999 10.8V18C20.3999 18.6365 20.147 19.247 19.697 19.6971C19.2469 20.1472 18.6364 20.4 17.9999 20.4H10.7999C10.1634 20.4 9.55293 20.1472 9.10285 19.6971C8.65276 19.247 8.3999 18.6365 8.3999 18V10.8Z" fill="white"/>
<path d="M6.0001 3.59998C5.36358 3.59998 4.75313 3.85283 4.30304 4.30292C3.85295 4.75301 3.6001 5.36346 3.6001 5.99998V13.2C3.6001 13.8365 3.85295 14.4469 4.30304 14.897C4.75313 15.3471 5.36358 15.6 6.0001 15.6V5.99998H15.6001C15.6001 5.36346 15.3472 4.75301 14.8972 4.30292C14.4471 3.85283 13.8366 3.59998 13.2001 3.59998H6.0001Z" fill="white"/>
</svg>
