<svg width="18" height="19" viewBox="0 0 18 19" fill="none" xmlns="http://www.w3.org/2000/svg">
<path fill-rule="evenodd" clip-rule="evenodd" d="M0.600098 2.99998C0.600098 2.36346 0.852954 1.75301 1.30304 1.30292C1.75313 0.852832 2.36358 0.599976 3.0001 0.599976H15.0001C15.6366 0.599976 16.2471 0.852832 16.6972 1.30292C17.1472 1.75301 17.4001 2.36346 17.4001 2.99998V12.6C17.4001 13.2365 17.1472 13.8469 16.6972 14.297C16.2471 14.7471 15.6366 15 15.0001 15H12.3361L12.4837 15.5868L13.4485 16.5516C13.6163 16.7194 13.7305 16.9332 13.7768 17.1659C13.8231 17.3987 13.7993 17.6399 13.7085 17.8592C13.6177 18.0784 13.4639 18.2658 13.2666 18.3977C13.0694 18.5295 12.8374 18.5999 12.6001 18.6H5.4001C5.1628 18.5999 4.93084 18.5295 4.73355 18.3977C4.53626 18.2658 4.38249 18.0784 4.29168 17.8592C4.20088 17.6399 4.17712 17.3987 4.2234 17.1659C4.26968 16.9332 4.38393 16.7194 4.5517 16.5516L5.5165 15.5868L5.6641 15H3.0001C2.36358 15 1.75313 14.7471 1.30304 14.297C0.852954 13.8469 0.600098 13.2365 0.600098 12.6V2.99998ZM7.5253 11.4H3.0001V2.99998H15.0001V11.4H7.5253Z" fill="#B1B8C0"/>
</svg>
