<svg width="11" height="7" viewBox="0 0 11 7" fill="none" xmlns="http://www.w3.org/2000/svg">
<path fill-rule="evenodd" clip-rule="evenodd" d="M0.292787 1.29296C0.480314 1.10549 0.734622 1.00017 0.999786 1.00017C1.26495 1.00017 1.51926 1.10549 1.70679 1.29296L4.99979 4.58596L8.29279 1.29296C8.38503 1.19745 8.49538 1.12127 8.61738 1.06886C8.73939 1.01645 8.87061 0.988862 9.00339 0.987709C9.13616 0.986555 9.26784 1.01186 9.39074 1.06214C9.51364 1.11242 9.62529 1.18667 9.71918 1.28056C9.81307 1.37446 9.88733 1.48611 9.93761 1.60901C9.98789 1.7319 10.0132 1.86358 10.012 1.99636C10.0109 2.12914 9.9833 2.26036 9.93089 2.38236C9.87848 2.50437 9.8023 2.61471 9.70679 2.70696L5.70679 6.70696C5.51926 6.89443 5.26495 6.99975 4.99979 6.99975C4.73462 6.99975 4.48031 6.89443 4.29279 6.70696L0.292787 2.70696C0.105316 2.51943 0 2.26512 0 1.99996C0 1.73479 0.105316 1.48049 0.292787 1.29296Z" fill="black"/>
</svg>
