<svg width="24" height="24" viewBox="0 0 24 24" fill="none" xmlns="http://www.w3.org/2000/svg">
<g clip-path="url(#clip0_2043_905)">
<path fill-rule="evenodd" clip-rule="evenodd" d="M10.8001 2.40002C10.5773 2.40014 10.3589 2.46228 10.1695 2.57949C9.97999 2.69669 9.82689 2.86433 9.7273 3.06362L8.8585 4.80002H4.8001C4.48184 4.80002 4.17661 4.92645 3.95157 5.1515C3.72653 5.37654 3.6001 5.68176 3.6001 6.00002C3.6001 6.31828 3.72653 6.62351 3.95157 6.84855C4.17661 7.0736 4.48184 7.20002 4.8001 7.20002V19.2C4.8001 19.8365 5.05295 20.447 5.50304 20.8971C5.95313 21.3472 6.56358 21.6 7.2001 21.6H16.8001C17.4366 21.6 18.0471 21.3472 18.4972 20.8971C18.9472 20.447 19.2001 19.8365 19.2001 19.2V7.20002C19.5184 7.20002 19.8236 7.0736 20.0486 6.84855C20.2737 6.62351 20.4001 6.31828 20.4001 6.00002C20.4001 5.68176 20.2737 5.37654 20.0486 5.1515C19.8236 4.92645 19.5184 4.80002 19.2001 4.80002H15.1417L14.2729 3.06362C14.1733 2.86433 14.0202 2.69669 13.8307 2.57949C13.6413 2.46228 13.4229 2.40014 13.2001 2.40002H10.8001ZM8.4001 9.60002C8.4001 9.28176 8.52653 8.97654 8.75157 8.7515C8.97661 8.52645 9.28184 8.40002 9.6001 8.40002C9.91836 8.40002 10.2236 8.52645 10.4486 8.7515C10.6737 8.97654 10.8001 9.28176 10.8001 9.60002V16.8C10.8001 17.1183 10.6737 17.4235 10.4486 17.6486C10.2236 17.8736 9.91836 18 9.6001 18C9.28184 18 8.97661 17.8736 8.75157 17.6486C8.52653 17.4235 8.4001 17.1183 8.4001 16.8V9.60002ZM14.4001 8.40002C14.0818 8.40002 13.7766 8.52645 13.5516 8.7515C13.3265 8.97654 13.2001 9.28176 13.2001 9.60002V16.8C13.2001 17.1183 13.3265 17.4235 13.5516 17.6486C13.7766 17.8736 14.0818 18 14.4001 18C14.7184 18 15.0236 17.8736 15.2486 17.6486C15.4737 17.4235 15.6001 17.1183 15.6001 16.8V9.60002C15.6001 9.28176 15.4737 8.97654 15.2486 8.7515C15.0236 8.52645 14.7184 8.40002 14.4001 8.40002Z" fill="#BB2124"/>
<path fill-rule="evenodd" clip-rule="evenodd" d="M10.8001 2.40002C10.5773 2.40014 10.3589 2.46228 10.1695 2.57949C9.97999 2.69669 9.82689 2.86433 9.7273 3.06362L8.8585 4.80002H4.8001C4.48184 4.80002 4.17661 4.92645 3.95157 5.1515C3.72653 5.37654 3.6001 5.68176 3.6001 6.00002C3.6001 6.31828 3.72653 6.62351 3.95157 6.84855C4.17661 7.0736 4.48184 7.20002 4.8001 7.20002V19.2C4.8001 19.8365 5.05295 20.447 5.50304 20.8971C5.95313 21.3472 6.56358 21.6 7.2001 21.6H16.8001C17.4366 21.6 18.0471 21.3472 18.4972 20.8971C18.9472 20.447 19.2001 19.8365 19.2001 19.2V7.20002C19.5184 7.20002 19.8236 7.0736 20.0486 6.84855C20.2737 6.62351 20.4001 6.31828 20.4001 6.00002C20.4001 5.68176 20.2737 5.37654 20.0486 5.1515C19.8236 4.92645 19.5184 4.80002 19.2001 4.80002H15.1417L14.2729 3.06362C14.1733 2.86433 14.0202 2.69669 13.8307 2.57949C13.6413 2.46228 13.4229 2.40014 13.2001 2.40002H10.8001ZM8.4001 9.60002C8.4001 9.28176 8.52653 8.97654 8.75157 8.7515C8.97661 8.52645 9.28184 8.40002 9.6001 8.40002C9.91836 8.40002 10.2236 8.52645 10.4486 8.7515C10.6737 8.97654 10.8001 9.28176 10.8001 9.60002V16.8C10.8001 17.1183 10.6737 17.4235 10.4486 17.6486C10.2236 17.8736 9.91836 18 9.6001 18C9.28184 18 8.97661 17.8736 8.75157 17.6486C8.52653 17.4235 8.4001 17.1183 8.4001 16.8V9.60002ZM14.4001 8.40002C14.0818 8.40002 13.7766 8.52645 13.5516 8.7515C13.3265 8.97654 13.2001 9.28176 13.2001 9.60002V16.8C13.2001 17.1183 13.3265 17.4235 13.5516 17.6486C13.7766 17.8736 14.0818 18 14.4001 18C14.7184 18 15.0236 17.8736 15.2486 17.6486C15.4737 17.4235 15.6001 17.1183 15.6001 16.8V9.60002C15.6001 9.28176 15.4737 8.97654 15.2486 8.7515C15.0236 8.52645 14.7184 8.40002 14.4001 8.40002Z" fill="#BB2124"/>
</g>
<defs>
<clipPath id="clip0_2043_905">
<rect width="24" height="24" fill="white"/>
</clipPath>
</defs>
</svg>
