<svg width="128" height="40" viewBox="0 0 128 40" fill="none" xmlns="http://www.w3.org/2000/svg">
<path d="M119.81 26.6666V15.3142H123.939C124.701 15.3142 125.371 15.4564 125.951 15.7409C126.54 16.0152 126.997 16.4215 127.322 16.9599C127.647 17.4882 127.81 18.1231 127.81 18.8647C127.81 19.5961 127.642 20.226 127.307 20.7542C126.982 21.2825 126.53 21.6888 125.951 21.9733C125.371 22.2577 124.701 22.3999 123.939 22.3999H121.608V26.6666H119.81ZM121.608 20.7999H123.985C124.391 20.7999 124.747 20.7187 125.051 20.5561C125.356 20.3936 125.595 20.1701 125.768 19.8856C125.94 19.591 126.027 19.2456 126.027 18.8494C126.027 18.4533 125.94 18.1129 125.768 17.8285C125.595 17.5339 125.356 17.3104 125.051 17.158C124.747 16.9955 124.391 16.9142 123.985 16.9142H121.608V20.7999Z" fill="white"/>
<path d="M113.212 26.8494C112.369 26.8494 111.617 26.6717 110.957 26.3161C110.307 25.9606 109.794 25.4729 109.418 24.8533C109.052 24.2336 108.869 23.5275 108.869 22.7352V15.3142H110.667V22.659C110.667 23.1567 110.774 23.5987 110.987 23.9847C111.211 24.3707 111.51 24.6704 111.886 24.8837C112.272 25.0971 112.714 25.2037 113.212 25.2037C113.72 25.2037 114.162 25.0971 114.538 24.8837C114.924 24.6704 115.223 24.3707 115.437 23.9847C115.66 23.5987 115.772 23.1567 115.772 22.659V15.3142H117.555V22.7352C117.555 23.5275 117.372 24.2336 117.006 24.8533C116.641 25.4729 116.128 25.9606 115.467 26.3161C114.817 26.6717 114.065 26.8494 113.212 26.8494Z" fill="white"/>
<path d="M101.099 26.8494C100.277 26.8494 99.5096 26.7021 98.7985 26.4075C98.0976 26.1129 97.4779 25.7015 96.9395 25.1733C96.4112 24.645 95.9947 24.0253 95.69 23.3142C95.3953 22.6031 95.248 21.826 95.248 20.9828C95.248 20.1396 95.3953 19.3625 95.69 18.6513C95.9947 17.9301 96.4112 17.3104 96.9395 16.7923C97.4677 16.264 98.0874 15.8577 98.7985 15.5733C99.5096 15.2786 100.277 15.1313 101.099 15.1313C101.932 15.1313 102.699 15.2786 103.4 15.5733C104.112 15.8577 104.731 16.264 105.259 16.7923C105.798 17.3206 106.214 17.9402 106.509 18.6513C106.804 19.3625 106.951 20.1396 106.951 20.9828C106.951 21.826 106.799 22.6031 106.494 23.3142C106.199 24.0253 105.788 24.645 105.259 25.1733C104.731 25.7015 104.112 26.1129 103.4 26.4075C102.689 26.7021 101.922 26.8494 101.099 26.8494ZM101.099 25.2037C101.689 25.2037 102.227 25.0971 102.715 24.8837C103.212 24.6704 103.644 24.3758 104.01 23.9999C104.376 23.6139 104.66 23.1669 104.863 22.659C105.066 22.1409 105.168 21.5821 105.168 20.9828C105.168 20.3834 105.066 19.8298 104.863 19.3218C104.66 18.8139 104.376 18.3669 104.01 17.9809C103.644 17.5948 103.212 17.2952 102.715 17.0818C102.227 16.8685 101.689 16.7618 101.099 16.7618C100.51 16.7618 99.9668 16.8685 99.469 17.0818C98.9814 17.2952 98.5547 17.5948 98.189 17.9809C97.8233 18.3669 97.5388 18.8139 97.3357 19.3218C97.1426 19.8298 97.0461 20.3834 97.0461 20.9828C97.0461 21.5821 97.1426 22.1409 97.3357 22.659C97.5388 23.1669 97.8233 23.6139 98.189 23.9999C98.5547 24.3758 98.9865 24.6704 99.4842 24.8837C99.982 25.0971 100.52 25.2037 101.099 25.2037Z" fill="white"/>
<path d="M85.6123 26.6666V15.3142H89.7418C90.5037 15.3142 91.1742 15.4564 91.7533 15.7409C92.3323 16.0152 92.7844 16.4215 93.1094 16.9599C93.4447 17.4882 93.6123 18.1231 93.6123 18.8647C93.6123 19.6469 93.4142 20.3174 93.018 20.8761C92.632 21.4348 92.1088 21.8412 91.4485 22.0952L94.0694 26.6666H92.0275L89.239 21.7142L90.4123 22.3999H87.4104V26.6666H85.6123ZM87.4104 20.7999H89.7723C90.1888 20.7999 90.5494 20.7187 90.8542 20.5561C91.159 20.3936 91.3926 20.1701 91.5552 19.8856C91.7279 19.591 91.8142 19.2456 91.8142 18.8494C91.8142 18.4533 91.7279 18.1129 91.5552 17.8285C91.3926 17.5339 91.159 17.3104 90.8542 17.158C90.5494 16.9955 90.1888 16.9142 89.7723 16.9142H87.4104V20.7999Z" fill="white"/>
<path d="M78.5352 26.8494C77.7326 26.8494 76.986 26.7021 76.2952 26.4075C75.6145 26.1129 75.0152 25.7066 74.4971 25.1885C73.9891 24.6602 73.5929 24.0406 73.3085 23.3294C73.0241 22.6183 72.8818 21.8361 72.8818 20.9828C72.8818 20.1396 73.019 19.3625 73.2933 18.6513C73.5777 17.9301 73.9739 17.3104 74.4818 16.7923C74.9898 16.264 75.5841 15.8577 76.2647 15.5733C76.9453 15.2786 77.692 15.1313 78.5047 15.1313C79.3072 15.1313 80.0234 15.2685 80.6533 15.5428C81.2933 15.8171 81.8317 16.1777 82.2685 16.6247C82.7053 17.0615 83.0202 17.539 83.2133 18.0571L81.6133 18.8342C81.3796 18.2145 80.9936 17.7167 80.4552 17.3409C79.9168 16.9548 79.2666 16.7618 78.5047 16.7618C77.7529 16.7618 77.0876 16.9396 76.5085 17.2952C75.9295 17.6507 75.4774 18.1434 75.1523 18.7733C74.8374 19.4031 74.6799 20.1396 74.6799 20.9828C74.6799 21.826 74.8425 22.5675 75.1676 23.2075C75.5028 23.8374 75.9599 24.3301 76.539 24.6856C77.118 25.031 77.7834 25.2037 78.5352 25.2037C79.165 25.2037 79.739 25.0767 80.2571 24.8228C80.7853 24.5587 81.2069 24.1929 81.5218 23.7256C81.8368 23.2482 81.9942 22.6945 81.9942 22.0647V21.2875L82.8018 22.019H78.5047V20.4952H83.7771V21.5618C83.7771 22.3948 83.6349 23.1415 83.3504 23.8018C83.066 24.452 82.6799 25.0056 82.1923 25.4628C81.7047 25.9199 81.146 26.2653 80.5161 26.499C79.8863 26.7326 79.226 26.8494 78.5352 26.8494Z" fill="white"/>
<path d="M61.4014 26.6666V15.3142H68.8833V16.9142H63.1995V20.1752H68.5785V21.7752H63.1995V25.0666H68.8833V26.6666H61.4014Z" fill="white"/>
<path d="M50.2109 26.6666V15.3142H52.009V20.3123H57.2662V15.3142H59.049V26.6666H57.2662V21.9123H52.009V26.6666H50.2109Z" fill="white"/>
<g clip-path="url(#clip0_2041_426)">
<path d="M36.1939 18.2789C36.1368 17.7603 35.6598 17.3983 35.1534 17.4455C34.6655 17.4983 34.3068 17.915 34.312 18.3958C34.312 18.4241 34.3119 18.4547 34.3152 18.4849C34.3398 18.6904 34.3539 18.8205 34.368 19.0302H29.4129C29.3592 19.0302 29.3002 19.0373 29.2474 19.043C26.7941 19.1712 24.8179 21.1161 24.6501 23.5616C24.6425 23.5852 24.6392 23.6177 24.6374 23.6498C24.6331 23.6734 24.6331 23.7026 24.6331 23.7313V33.4258C24.0528 33.6148 23.464 33.7694 22.8643 33.8816C22.8785 33.1938 22.8785 32.2549 22.8827 30.9609V6.0715C23.0331 6.10262 23.1868 6.13184 23.3372 6.16672C23.3522 6.16955 23.3706 6.17379 23.3876 6.17568C23.7968 6.27043 24.1989 6.38874 24.5963 6.51885V19.2395C25.1658 18.7436 25.814 18.3331 26.524 18.0286L26.5207 14.8562L26.5165 13.583V7.30841C28.7699 8.44161 30.7041 10.1645 32.1057 12.3597C32.4409 12.8867 32.7473 13.4463 33.0103 14.0133C33.1749 14.357 33.5101 14.5601 33.8712 14.5601C34.0022 14.5601 34.1366 14.5304 34.2667 14.4687C34.7362 14.2547 34.9427 13.6909 34.7235 13.2186C34.4246 12.5733 34.081 11.9426 33.6953 11.3439C31.836 8.43784 29.1508 6.25251 26.0281 5.03164C25.987 5.00995 25.9507 4.98968 25.9107 4.9713C25.7744 4.91851 25.6377 4.87702 25.4982 4.82989V4.82847C24.3818 4.43911 23.2264 4.16335 22.0497 4.02854C22.0337 4.02712 22.0252 4.02854 22.0143 4.02854C21.9747 4.02712 21.937 4.021 21.9017 4.021C21.4373 4.021 21.0272 4.37595 20.9678 4.85487V35.1501C21.0267 35.6285 21.4331 35.9806 21.905 35.9806C21.9394 35.9806 21.9747 35.9806 22.0148 35.9764C25.8499 35.5357 29.3342 33.751 31.9129 30.967C32.5705 30.2623 33.1669 29.4897 33.6958 28.6625C34.0814 28.0629 34.4256 27.4289 34.724 26.7845C34.9432 26.3159 34.7367 25.7507 34.2672 25.5348C33.7953 25.3147 33.23 25.5188 33.0108 25.9935C32.7478 26.561 32.4413 27.113 32.1061 27.6419C31.1807 29.0947 30.0215 30.3401 28.6911 31.3423C28.0099 31.8589 27.2825 32.3114 26.5174 32.6951V23.9001C26.5174 22.255 27.8553 20.92 29.4973 20.92C29.51 20.92 29.5308 20.9158 29.5435 20.9158H34.3685C34.3619 21.0138 34.3544 21.1128 34.3483 21.2118C34.3021 21.7298 34.6844 22.1876 35.2058 22.2281C35.2359 22.23 35.2595 22.23 35.2873 22.23C35.772 22.23 36.1826 21.8647 36.2288 21.3725C36.2396 21.2288 36.2514 21.0826 36.2575 20.9375C36.2778 20.615 36.2886 20.2931 36.2886 19.9692C36.2886 19.3814 36.2552 18.8629 36.1944 18.2789H36.1939Z" fill="white"/>
<path d="M20.1916 0C9.16074 0 0.190918 8.97086 0.190918 20.0007C0.190918 31.0306 9.16074 40 20.1916 40C31.2225 40 40.1909 31.0277 40.1909 20.0007C40.1909 8.97368 31.2211 0 20.1916 0ZM20.1916 38.1154C10.2031 38.1154 2.07474 29.9879 2.07474 20.0007C2.07474 10.0136 10.2031 1.88741 20.1916 1.88741C30.1802 1.88741 38.3071 10.015 38.3071 20.0007C38.3071 29.9864 30.183 38.1154 20.1916 38.1154Z" fill="white"/>
<path d="M19.3684 35.0594C19.3708 35.1226 19.3675 35.1871 19.3557 35.2536C19.2708 35.7061 18.8777 36.0262 18.4284 36.0262C18.3916 36.0262 18.3544 36.0262 18.3209 36.0196C16.9957 35.8669 15.6955 35.5501 14.4524 35.0764C14.0861 34.9368 13.8452 34.5875 13.8452 34.1953V22.0516C14.5222 21.8023 15.1539 21.4695 15.73 21.0697V33.5316C16.3051 33.7207 16.8915 33.8734 17.487 33.9884C17.4827 33.5811 17.4827 33.0848 17.4827 32.4786V6.16654C16.8807 6.28203 16.2919 6.4357 15.7139 6.62756C15.7205 7.15362 15.7267 7.95167 15.7267 9.18527C15.73 10.6781 15.73 12.8041 15.73 15.8468C15.73 15.901 15.7234 15.9538 15.7139 16.0043C15.7238 16.0533 15.729 16.1014 15.729 16.1528C15.729 18.8373 13.5454 21.0193 10.8634 21.0193H6.24487C6.17415 21.0193 6.10532 21.0094 6.03838 20.9953C6.08364 21.6783 6.17604 22.3528 6.31558 23.0147C6.66255 24.6683 7.30322 26.2512 8.22391 27.6889C8.50205 28.1254 8.3743 28.7085 7.93493 28.9899C7.777 29.0898 7.60399 29.137 7.43003 29.137C7.11747 29.137 6.81341 28.9823 6.63144 28.7019C5.13984 26.3629 4.28656 23.6883 4.14278 20.9156C4.12769 20.638 4.12109 20.357 4.12109 20.0779C4.12109 17.0088 4.98946 14.0264 6.63144 11.4512C6.91288 11.0133 7.49744 10.8851 7.93493 11.1651C8.3743 11.4455 8.50252 12.0291 8.22391 12.4656C6.9355 14.4798 6.19065 16.7788 6.03791 19.1588C6.10438 19.1437 6.17321 19.1347 6.24439 19.1347H10.863C12.5049 19.1347 13.8428 17.7969 13.8428 16.1528C13.8428 16.1 13.8527 16.0491 13.8589 15.9981C13.8523 15.9505 13.8447 15.8996 13.8447 15.8473C13.8447 15.8473 13.8447 11.1189 13.8424 8.20385V5.96621C13.8424 5.84836 13.865 5.72863 13.9088 5.61644C14.0055 5.36708 14.2021 5.17287 14.4481 5.07671C15.6913 4.60014 16.9896 4.28809 18.3115 4.13348C18.8734 4.07455 19.367 4.51435 19.367 5.07058V20.0982C19.367 25.8962 19.3675 34.6252 19.3684 35.0594Z" fill="white"/>
</g>
<defs>
<clipPath id="clip0_2041_426">
<rect width="40" height="40" fill="white" transform="translate(0.190918)"/>
</clipPath>
</defs>
</svg>
