<svg width="80" height="80" viewBox="0 0 80 80" fill="none" xmlns="http://www.w3.org/2000/svg">
<path d="M22.0002 52C18.4183 51.9953 14.9744 50.6179 12.3772 48.1511C9.78009 45.6844 8.22719 42.316 8.03809 38.7391C7.849 35.1622 9.03809 31.6489 11.3607 28.9221C13.6833 26.1952 16.9627 24.4624 20.5242 24.08C19.4755 19.9676 20.1034 15.607 22.2699 11.9575C24.4363 8.30806 27.9637 5.66868 32.0762 4.62002C36.1886 3.57135 40.5492 4.1993 44.1987 6.36572C47.8481 8.53214 50.4875 12.0596 51.5362 16.172C53.9819 15.8315 56.4716 15.9978 58.8504 16.6607C61.2291 17.3236 63.4461 18.4688 65.3632 20.0251C67.2804 21.5815 68.8569 23.5157 69.9945 25.7074C71.1322 27.8991 71.8067 30.3015 71.9761 32.765C72.1455 35.2286 71.8062 37.7007 70.9793 40.0275C70.1525 42.3543 68.8556 44.4861 67.1696 46.2903C65.4835 48.0944 63.4442 49.5324 61.1786 50.5146C58.913 51.4969 56.4695 52.0025 54.0002 52H44.0002V37.652L49.1722 42.824C49.9266 43.5527 50.937 43.9558 51.9858 43.9467C53.0345 43.9376 54.0378 43.5169 54.7794 42.7753C55.5211 42.0337 55.9417 41.0304 55.9509 39.9816C55.96 38.9328 55.5568 37.9224 54.8282 37.168L42.8282 25.168C42.078 24.4181 41.0608 23.9969 40.0002 23.9969C38.9395 23.9969 37.9223 24.4181 37.1722 25.168L25.1722 37.168C24.4435 37.9224 24.0403 38.9328 24.0495 39.9816C24.0586 41.0304 24.4793 42.0337 25.2209 42.7753C25.9625 43.5169 26.9658 43.9376 28.0146 43.9467C29.0633 43.9558 30.0738 43.5527 30.8282 42.824L36.0002 37.656V52H22.0002Z" fill="#000C79"/>
<path d="M36 52H44V72C44 73.0609 43.5786 74.0783 42.8284 74.8284C42.0783 75.5786 41.0609 76 40 76C38.9391 76 37.9217 75.5786 37.1716 74.8284C36.4214 74.0783 36 73.0609 36 72V52Z" fill="#000C79"/>
</svg>
