<svg width="16" height="16" viewBox="0 0 16 16" fill="none" xmlns="http://www.w3.org/2000/svg">
<path d="M3.27533 1.772C4.65867 1.592 6.06867 1.5 7.5 1.5C8.93133 1.5 10.3413 1.59267 11.7247 1.772C13.006 1.93867 13.9187 3.01267 13.9947 4.25667C13.7718 4.18242 13.5408 4.13519 13.3067 4.116C11.4388 3.96094 9.56123 3.96094 7.69333 4.116C6.12133 4.24667 5 5.576 5 7.072V9.92933C4.99937 10.4785 5.15052 11.0172 5.43674 11.4859C5.72297 11.9546 6.13315 12.3351 6.622 12.5853L4.85333 14.3533C4.78341 14.4232 4.69436 14.4707 4.59742 14.49C4.50049 14.5092 4.40003 14.4993 4.30872 14.4615C4.21741 14.4237 4.13935 14.3597 4.08441 14.2776C4.02946 14.1954 4.00009 14.0988 4 14V11.3133C3.75813 11.2876 3.51656 11.2592 3.27533 11.228C1.93667 11.0533 1 9.88867 1 8.57467V4.42533C1 3.112 1.93667 1.946 3.27533 1.772Z" fill="#4F5B67"/>
<path d="M10.5 5C9.58267 5 8.674 5.038 7.776 5.11267C6.74933 5.198 6 6.06867 6 7.07267V9.92934C6 10.934 6.752 11.8053 7.78 11.8893C8.60867 11.9573 9.44667 11.994 10.292 11.9993L12.1467 13.8533C12.2166 13.9232 12.3056 13.9707 12.4026 13.99C12.4995 14.0092 12.6 13.9993 12.6913 13.9615C12.7826 13.9237 12.8606 13.8597 12.9156 13.7776C12.9705 13.6954 12.9999 13.5988 13 13.5V11.9067L13.22 11.8893C14.248 11.806 15 10.934 15 9.92934V7.072C15 6.06867 14.25 5.198 13.224 5.112C12.3179 5.03708 11.4092 4.99971 10.5 5Z" fill="#4F5B67"/>
</svg>
