<svg width="20" height="20" viewBox="0 0 20 20" fill="none" xmlns="http://www.w3.org/2000/svg">
<path fill-rule="evenodd" clip-rule="evenodd" d="M19.5999 7.60004C19.6002 8.72465 19.3371 9.83369 18.8316 10.8383C18.3262 11.8429 17.5924 12.7151 16.6891 13.3851C15.7859 14.055 14.7382 14.5041 13.6301 14.6963C12.5221 14.8884 11.3844 14.8183 10.3083 14.4916L9.9999 14.8L8.7999 16L7.5999 17.2H5.1999V19.6H0.399902V14.8L5.5083 9.69164C5.20884 8.70166 5.12618 7.65878 5.26595 6.63398C5.40573 5.60918 5.76465 4.62653 6.31829 3.7529C6.87193 2.87927 7.6073 2.13518 8.47434 1.57126C9.34137 1.00735 10.3197 0.636862 11.3428 0.485008C12.3659 0.333154 13.4097 0.403502 14.4031 0.691263C15.3966 0.979025 16.3163 1.47745 17.0999 2.1526C17.8834 2.82775 18.5123 3.66379 18.9437 4.60381C19.3751 5.54383 19.5989 6.56576 19.5999 7.60004ZM12.3999 2.80004C12.0816 2.80004 11.7764 2.92647 11.5514 3.15151C11.3263 3.37656 11.1999 3.68178 11.1999 4.00004C11.1999 4.3183 11.3263 4.62353 11.5514 4.84857C11.7764 5.07361 12.0816 5.20004 12.3999 5.20004C13.0364 5.20004 13.6469 5.4529 14.097 5.90299C14.547 6.35307 14.7999 6.96352 14.7999 7.60004C14.7999 7.9183 14.9263 8.22353 15.1514 8.44857C15.3764 8.67361 15.6816 8.80004 15.9999 8.80004C16.3182 8.80004 16.6234 8.67361 16.8484 8.44857C17.0735 8.22353 17.1999 7.9183 17.1999 7.60004C17.1999 6.327 16.6942 5.1061 15.794 4.20593C14.8938 3.30575 13.6729 2.80004 12.3999 2.80004Z" fill="#89909F"/>
</svg>
