<svg width="108" height="34" viewBox="0 0 108 34" fill="none" xmlns="http://www.w3.org/2000/svg">
<path d="M100.858 22.3898V12.8582H104.326C104.965 12.8582 105.528 12.9776 106.014 13.2164C106.509 13.4467 106.893 13.7879 107.166 14.2399C107.439 14.6835 107.575 15.2165 107.575 15.8392C107.575 16.4533 107.435 16.9821 107.153 17.4257C106.88 17.8692 106.501 18.2104 106.014 18.4492C105.528 18.688 104.965 18.8074 104.326 18.8074H102.368V22.3898H100.858ZM102.368 17.4641H104.364C104.705 17.4641 105.004 17.3958 105.26 17.2594C105.515 17.1229 105.716 16.9352 105.861 16.6964C106.006 16.4491 106.078 16.1591 106.078 15.8264C106.078 15.4938 106.006 15.208 105.861 14.9692C105.716 14.7218 105.515 14.5342 105.26 14.4063C105.004 14.2698 104.705 14.2015 104.364 14.2015H102.368V17.4641Z" fill="#161616"/>
<path d="M95.3197 22.5433C94.6117 22.5433 93.9806 22.3941 93.4261 22.0956C92.8803 21.797 92.4495 21.3876 92.1339 20.8673C91.8269 20.347 91.6733 19.7542 91.6733 19.0889V12.8582H93.1831V19.0249C93.1831 19.4429 93.2726 19.8139 93.4517 20.138C93.6394 20.4622 93.891 20.7138 94.2066 20.8929C94.5307 21.072 94.9017 21.1616 95.3197 21.1616C95.7462 21.1616 96.1172 21.072 96.4328 20.8929C96.7569 20.7138 97.0085 20.4622 97.1876 20.138C97.3753 19.8139 97.4691 19.4429 97.4691 19.0249V12.8582H98.966V19.0889C98.966 19.7542 98.8125 20.347 98.5054 20.8673C98.1984 21.3876 97.7676 21.797 97.2132 22.0956C96.6673 22.3941 96.0362 22.5433 95.3197 22.5433Z" fill="#161616"/>
<path d="M85.1488 22.5433C84.4579 22.5433 83.8139 22.4196 83.2169 22.1723C82.6284 21.9249 82.1081 21.5795 81.656 21.136C81.2125 20.6924 80.8628 20.1721 80.6069 19.5751C80.3595 18.978 80.2358 18.3255 80.2358 17.6176C80.2358 16.9096 80.3595 16.2571 80.6069 15.66C80.8628 15.0545 81.2125 14.5342 81.656 14.0992C82.0995 13.6556 82.6198 13.3144 83.2169 13.0756C83.8139 12.8283 84.4579 12.7046 85.1488 12.7046C85.8482 12.7046 86.4922 12.8283 87.0807 13.0756C87.6778 13.3144 88.1981 13.6556 88.6416 14.0992C89.0937 14.5427 89.4434 15.063 89.6907 15.66C89.9381 16.2571 90.0618 16.9096 90.0618 17.6176C90.0618 18.3255 89.9338 18.978 89.6779 19.5751C89.4306 20.1721 89.0851 20.6924 88.6416 21.136C88.1981 21.5795 87.6778 21.9249 87.0807 22.1723C86.4837 22.4196 85.8397 22.5433 85.1488 22.5433ZM85.1488 21.1615C85.6435 21.1615 86.0956 21.072 86.505 20.8929C86.9229 20.7137 87.2854 20.4664 87.5925 20.1508C87.8996 19.8267 88.1384 19.4514 88.309 19.0249C88.4796 18.5899 88.5648 18.1208 88.5648 17.6176C88.5648 17.1143 88.4796 16.6495 88.309 16.223C88.1384 15.7965 87.8996 15.4212 87.5925 15.0971C87.2854 14.773 86.9229 14.5214 86.505 14.3422C86.0956 14.1631 85.6435 14.0736 85.1488 14.0736C84.6541 14.0736 84.1978 14.1631 83.7798 14.3422C83.3704 14.5214 83.0122 14.773 82.7051 15.0971C82.3981 15.4212 82.1592 15.7965 81.9886 16.223C81.8266 16.6495 81.7456 17.1143 81.7456 17.6176C81.7456 18.1208 81.8266 18.5899 81.9886 19.0249C82.1592 19.4514 82.3981 19.8267 82.7051 20.1508C83.0122 20.4664 83.3747 20.7137 83.7926 20.8929C84.2106 21.072 84.6626 21.1615 85.1488 21.1615Z" fill="#161616"/>
<path d="M72.1465 22.3898V12.8582H75.6137C76.2534 12.8582 76.8164 12.9776 77.3025 13.2164C77.7887 13.4467 78.1683 13.7879 78.4412 14.2399C78.7227 14.6835 78.8634 15.2165 78.8634 15.8392C78.8634 16.496 78.6971 17.0589 78.3645 17.528C78.0403 17.9971 77.6011 18.3383 77.0467 18.5516L79.2473 22.3898H77.5328L75.1915 18.2317L76.1767 18.8074H73.6562V22.3898H72.1465ZM73.6562 17.4641H75.6393C75.989 17.4641 76.2918 17.3958 76.5477 17.2594C76.8036 17.1229 76.9997 16.9352 77.1362 16.6964C77.2812 16.4491 77.3537 16.1591 77.3537 15.8264C77.3537 15.4938 77.2812 15.208 77.1362 14.9692C76.9997 14.7218 76.8036 14.5342 76.5477 14.4063C76.2918 14.2698 75.989 14.2015 75.6393 14.2015H73.6562V17.4641Z" fill="#161616"/>
<path d="M66.2037 22.5433C65.5298 22.5433 64.9029 22.4196 64.3229 22.1723C63.7515 21.9249 63.2482 21.5837 62.8132 21.1487C62.3867 20.7052 62.0541 20.1849 61.8153 19.5879C61.5764 18.9908 61.457 18.334 61.457 17.6176C61.457 16.9096 61.5722 16.2571 61.8025 15.66C62.0413 15.0545 62.3739 14.5342 62.8004 14.0992C63.2269 13.6556 63.7259 13.3144 64.2973 13.0756C64.8688 12.8283 65.4957 12.7046 66.1781 12.7046C66.8519 12.7046 67.4532 12.8197 67.9821 13.05C68.5194 13.2803 68.9715 13.5831 69.3382 13.9584C69.705 14.3252 69.9694 14.7261 70.1315 15.1611L68.7881 15.8136C68.5919 15.2933 68.2678 14.8753 67.8157 14.5597C67.3637 14.2356 66.8178 14.0736 66.1781 14.0736C65.5469 14.0736 64.9882 14.2228 64.502 14.5214C64.0159 14.8199 63.6363 15.2336 63.3634 15.7624C63.099 16.2912 62.9667 16.9096 62.9667 17.6176C62.9667 18.3255 63.1032 18.9481 63.3762 19.4855C63.6576 20.0143 64.0415 20.428 64.5276 20.7265C65.0138 21.0165 65.5725 21.1615 66.2037 21.1615C66.7325 21.1615 67.2144 21.0549 67.6494 20.8417C68.0929 20.6199 68.4469 20.3129 68.7113 19.9205C68.9757 19.5196 69.108 19.0548 69.108 18.5259V17.8734L69.786 18.4876H66.1781V17.2081H70.6049V18.1037C70.6049 18.8031 70.4855 19.4301 70.2466 19.9845C70.0078 20.5304 69.6837 20.9952 69.2743 21.379C68.8649 21.7629 68.3957 22.0529 67.8669 22.249C67.3381 22.4452 66.7837 22.5433 66.2037 22.5433Z" fill="#161616"/>
<path d="M51.8179 22.3898V12.8582H58.0998V14.2015H53.3276V16.9395H57.8439V18.2829H53.3276V21.0464H58.0998V22.3898H51.8179Z" fill="#161616"/>
<path d="M42.4224 22.3898V12.8582H43.9321V17.0546H48.3461V12.8582H49.843V22.3898H48.3461V18.398H43.9321V22.3898H42.4224Z" fill="#161616"/>
<g clip-path="url(#clip0_2059_580)">
<path d="M30.6533 15.3471C30.6054 14.9118 30.2048 14.6078 29.7797 14.6474C29.37 14.6917 29.0688 15.0416 29.0732 15.4453C29.0732 15.469 29.0731 15.4948 29.0759 15.5201C29.0965 15.6927 29.1084 15.8019 29.1203 15.978H24.9598C24.9147 15.978 24.8652 15.9839 24.8209 15.9887C22.761 16.0964 21.1018 17.7293 20.9609 19.7826C20.9545 19.8024 20.9518 19.8297 20.9502 19.8567C20.9466 19.8764 20.9466 19.901 20.9466 19.9251V28.0647C20.4594 28.2235 19.965 28.3533 19.4615 28.4475C19.4734 27.87 19.4734 27.0816 19.477 25.9952V5.09762C19.6032 5.12374 19.7323 5.14828 19.8585 5.17757C19.8712 5.17994 19.8866 5.1835 19.9009 5.18509C20.2444 5.26464 20.5821 5.36398 20.9157 5.47322V16.1537C21.3939 15.7374 21.9381 15.3927 22.5342 15.137L22.5315 12.4734L22.5279 11.4044V6.13615C24.4199 7.0876 26.044 8.53418 27.2207 10.3773C27.5022 10.8198 27.7594 11.2896 27.9803 11.7657C28.1184 12.0542 28.3999 12.2248 28.7031 12.2248C28.8131 12.2248 28.9259 12.1999 29.0352 12.148C29.4294 11.9684 29.6028 11.495 29.4187 11.0984C29.1678 10.5566 28.8792 10.0271 28.5554 9.52442C26.9943 7.08444 24.7397 5.2496 22.1178 4.22453C22.0834 4.20632 22.0529 4.1893 22.0193 4.17387C21.9049 4.12954 21.7901 4.09471 21.6729 4.05514V4.05395C20.7357 3.72703 19.7655 3.4955 18.7775 3.38231C18.7641 3.38112 18.757 3.38231 18.7479 3.38231C18.7146 3.38112 18.6829 3.37598 18.6533 3.37598C18.2634 3.37598 17.919 3.674 17.8691 4.07611V29.5125C17.9186 29.9142 18.2598 30.2099 18.656 30.2099C18.6849 30.2099 18.7146 30.2099 18.7483 30.2063C21.9682 29.8363 24.8937 28.3378 27.0588 26.0004C27.611 25.4087 28.1117 24.76 28.5558 24.0654C28.8796 23.562 29.1685 23.0296 29.4191 22.4886C29.6032 22.0952 29.4298 21.6207 29.0355 21.4394C28.6393 21.2546 28.1647 21.4259 27.9807 21.8245C27.7598 22.301 27.5025 22.7645 27.2211 23.2085C26.4441 24.4283 25.4708 25.474 24.3538 26.3154C23.7819 26.7492 23.1711 27.1291 22.5287 27.4513V20.0668C22.5287 18.6855 23.652 17.5647 25.0307 17.5647C25.0414 17.5647 25.0588 17.5611 25.0695 17.5611H29.1206C29.1151 17.6435 29.1088 17.7266 29.1036 17.8097C29.0648 18.2446 29.3858 18.6289 29.8236 18.663C29.849 18.6646 29.8687 18.6646 29.8921 18.6646C30.299 18.6646 30.6438 18.3578 30.6825 17.9446C30.6916 17.8239 30.7015 17.7012 30.7067 17.5793C30.7237 17.3086 30.7328 17.0383 30.7328 16.7664C30.7328 16.2729 30.7047 15.8375 30.6537 15.3471H30.6533Z" fill="#161616"/>
<path d="M17.2178 0C7.95602 0 0.424805 7.53209 0.424805 16.793C0.424805 26.0538 7.95602 33.5847 17.2178 33.5847C26.4795 33.5847 34.0095 26.0514 34.0095 16.793C34.0095 7.53447 26.4783 0 17.2178 0ZM17.2178 32.0024C8.83118 32.0024 2.00649 25.1783 2.00649 16.793C2.00649 8.40756 8.83118 1.5847 17.2178 1.5847C25.6043 1.5847 32.4278 8.40874 32.4278 16.793C32.4278 25.1772 25.6067 32.0024 17.2178 32.0024Z" fill="#161616"/>
<path d="M16.5265 29.4365C16.5285 29.4895 16.5257 29.5437 16.5158 29.5995C16.4446 29.9795 16.1145 30.2482 15.7373 30.2482C15.7064 30.2482 15.6751 30.2482 15.647 30.2427C14.5344 30.1144 13.4427 29.8485 12.3989 29.4507C12.0914 29.3336 11.8891 29.0403 11.8891 28.711V18.5149C12.4575 18.3055 12.9879 18.0261 13.4716 17.6905V28.1537C13.9545 28.3124 14.4469 28.4407 14.9468 28.5373C14.9433 28.1953 14.9433 27.7785 14.9433 27.2696V5.17752C14.4378 5.27448 13.9434 5.40351 13.4582 5.56459C13.4637 6.00628 13.4688 6.67634 13.4688 7.71209C13.4716 8.96553 13.4716 10.7505 13.4716 13.3053C13.4716 13.3508 13.4661 13.3951 13.4582 13.4374C13.4665 13.4786 13.4708 13.519 13.4708 13.5621C13.4708 15.8161 11.6374 17.6482 9.38559 17.6482H5.50777C5.44839 17.6482 5.3906 17.6398 5.3344 17.628C5.3724 18.2015 5.44998 18.7678 5.56714 19.3235C5.85846 20.7119 6.39638 22.0409 7.16941 23.248C7.40294 23.6145 7.29567 24.1041 6.92677 24.3404C6.79417 24.4243 6.64891 24.4639 6.50285 24.4639C6.24042 24.4639 5.98512 24.3341 5.83234 24.0986C4.57997 22.1347 3.86354 19.8891 3.74282 17.5611C3.73015 17.328 3.72461 17.0921 3.72461 16.8578C3.72461 14.2809 4.4537 11.7768 5.83234 9.61461C6.06864 9.24693 6.55945 9.13928 6.92677 9.37437C7.29567 9.60986 7.40334 10.0998 7.16941 10.4663C6.08764 12.1575 5.46225 14.0877 5.334 16.086C5.38981 16.0733 5.4476 16.0658 5.50737 16.0658H9.3852C10.7638 16.0658 11.8872 14.9426 11.8872 13.5621C11.8872 13.5178 11.8955 13.475 11.9006 13.4323C11.8951 13.3923 11.8887 13.3496 11.8887 13.3057C11.8887 13.3057 11.8887 9.33558 11.8868 6.88808V5.00931C11.8868 4.91036 11.9058 4.80984 11.9426 4.71564C12.0237 4.50627 12.1888 4.34321 12.3954 4.26247C13.4392 3.86234 14.5292 3.60033 15.6391 3.47052C16.1109 3.42104 16.5253 3.79031 16.5253 4.25733V16.8748C16.5253 21.7429 16.5253 29.0723 16.5261 29.4369L16.5265 29.4365Z" fill="#161616"/>
</g>
<defs>
<clipPath id="clip0_2059_580">
<rect width="33.5847" height="33.5847" fill="white" transform="translate(0.424805)"/>
</clipPath>
</defs>
</svg>
