<svg width="14" height="12" viewBox="0 0 14 12" fill="none" xmlns="http://www.w3.org/2000/svg">
<path fill-rule="evenodd" clip-rule="evenodd" d="M2.2001 0.400024C1.77575 0.400024 1.36878 0.568595 1.06873 0.868654C0.768669 1.16871 0.600098 1.57568 0.600098 2.00002V10C0.600098 10.4244 0.768669 10.8313 1.06873 11.1314C1.36878 11.4315 1.77575 11.6 2.2001 11.6H11.8001C12.2244 11.6 12.6314 11.4315 12.9315 11.1314C13.2315 10.8313 13.4001 10.4244 13.4001 10V2.00002C13.4001 1.57568 13.2315 1.16871 12.9315 0.868654C12.6314 0.568595 12.2244 0.400024 11.8001 0.400024H2.2001ZM11.8001 10H2.2001L5.4001 3.60002L7.8001 8.40002L9.4001 5.20002L11.8001 10Z" fill="#000C79"/>
</svg>
