<svg width="16" height="16" viewBox="0 0 16 16" fill="none" xmlns="http://www.w3.org/2000/svg">
<path d="M7.2001 1.59998C6.77575 1.59998 6.36878 1.76855 6.06873 2.0686C5.76867 2.36866 5.6001 2.77563 5.6001 3.19998V9.59998C5.6001 10.0243 5.76867 10.4313 6.06873 10.7313C6.36878 11.0314 6.77575 11.2 7.2001 11.2H12.0001C12.4244 11.2 12.8314 11.0314 13.1315 10.7313C13.4315 10.4313 13.6001 10.0243 13.6001 9.59998V5.13118C13.6 4.70686 13.4314 4.29996 13.1313 3.99998L11.2001 2.06878C10.9001 1.7687 10.4932 1.60007 10.0689 1.59998H7.2001Z" fill="#4F5B67"/>
<path d="M2.3999 6.40005C2.3999 5.9757 2.56847 5.56874 2.86853 5.26868C3.16859 4.96862 3.57556 4.80005 3.9999 4.80005V12.8H10.3999C10.3999 13.2244 10.2313 13.6314 9.93127 13.9314C9.63121 14.2315 9.22425 14.4 8.7999 14.4H3.9999C3.57556 14.4 3.16859 14.2315 2.86853 13.9314C2.56847 13.6314 2.3999 13.2244 2.3999 12.8V6.40005Z" fill="#4F5B67"/>
</svg>
