<svg width="20" height="20" viewBox="0 0 20 20" fill="none" xmlns="http://www.w3.org/2000/svg">
<path fill-rule="evenodd" clip-rule="evenodd" d="M19.5999 10C19.5999 12.5461 18.5885 14.9879 16.7881 16.7882C14.9878 18.5886 12.546 19.6 9.9999 19.6C7.45382 19.6 5.01203 18.5886 3.21168 16.7882C1.41133 14.9879 0.399902 12.5461 0.399902 10C0.399902 7.45395 1.41133 5.01215 3.21168 3.2118C5.01203 1.41145 7.45382 0.400024 9.9999 0.400024C12.546 0.400024 14.9878 1.41145 16.7881 3.2118C18.5885 5.01215 19.5999 7.45395 19.5999 10ZM12.3999 6.40002C12.3999 7.03654 12.147 7.64699 11.697 8.09708C11.2469 8.54717 10.6364 8.80002 9.9999 8.80002C9.36338 8.80002 8.75293 8.54717 8.30285 8.09708C7.85276 7.64699 7.5999 7.03654 7.5999 6.40002C7.5999 5.7635 7.85276 5.15306 8.30285 4.70297C8.75293 4.25288 9.36338 4.00002 9.9999 4.00002C10.6364 4.00002 11.2469 4.25288 11.697 4.70297C12.147 5.15306 12.3999 5.7635 12.3999 6.40002ZM9.9999 11.2C8.85102 11.1998 7.72623 11.5294 6.7592 12.1497C5.79217 12.77 5.02355 13.6549 4.5447 14.6992C5.21991 15.4847 6.05703 16.1149 6.99864 16.5466C7.94024 16.9783 8.96407 17.2012 9.9999 17.2C11.0357 17.2012 12.0596 16.9783 13.0012 16.5466C13.9428 16.1149 14.7799 15.4847 15.4551 14.6992C14.9762 13.6549 14.2076 12.77 13.2406 12.1497C12.2736 11.5294 11.1488 11.1998 9.9999 11.2Z" fill="#B1B8C0"/>
</svg>
