<svg width="10" height="12" viewBox="0 0 10 12" fill="none" xmlns="http://www.w3.org/2000/svg">
<path fill-rule="evenodd" clip-rule="evenodd" d="M0.100098 10.9C0.100098 10.7143 0.173847 10.5363 0.305123 10.405C0.436398 10.2737 0.614446 10.2 0.800098 10.2H9.2001C9.38575 10.2 9.5638 10.2737 9.69507 10.405C9.82635 10.5363 9.9001 10.7143 9.9001 10.9C9.9001 11.0856 9.82635 11.2637 9.69507 11.395C9.5638 11.5262 9.38575 11.6 9.2001 11.6H0.800098C0.614446 11.6 0.436398 11.5262 0.305123 11.395C0.173847 11.2637 0.100098 11.0856 0.100098 10.9ZM2.4052 3.6949C2.27397 3.56363 2.20025 3.38561 2.20025 3.2C2.20025 3.01438 2.27397 2.83637 2.4052 2.7051L4.5052 0.605097C4.63647 0.473867 4.81448 0.400146 5.0001 0.400146C5.18571 0.400146 5.36373 0.473867 5.495 0.605097L7.595 2.7051C7.72251 2.83712 7.79306 3.01394 7.79147 3.19748C7.78987 3.38102 7.71626 3.55658 7.58647 3.68637C7.45668 3.81616 7.28112 3.88977 7.09758 3.89137C6.91404 3.89296 6.73722 3.82241 6.6052 3.6949L5.7001 2.7898V8.1C5.7001 8.28565 5.62635 8.4637 5.49507 8.59497C5.3638 8.72625 5.18575 8.8 5.0001 8.8C4.81445 8.8 4.6364 8.72625 4.50512 8.59497C4.37385 8.4637 4.3001 8.28565 4.3001 8.1V2.7898L3.395 3.6949C3.26373 3.82613 3.08571 3.89985 2.9001 3.89985C2.71448 3.89985 2.53647 3.82613 2.4052 3.6949Z" fill="white"/>
</svg>
