<svg width="24" height="24" viewBox="0 0 24 24" fill="none" xmlns="http://www.w3.org/2000/svg">
<path fill-rule="evenodd" clip-rule="evenodd" d="M4.8995 10.8H7.2347C7.3415 8.94482 7.6943 7.23602 8.2391 5.85842C7.36191 6.39593 6.61 7.11505 6.03395 7.96743C5.45791 8.8198 5.07108 9.78566 4.8995 10.8ZM11.9999 2.40002C9.45382 2.40002 7.01203 3.41145 5.21168 5.2118C3.41133 7.01215 2.3999 9.45395 2.3999 12C2.3999 14.5461 3.41133 16.9879 5.21168 18.7882C7.01203 20.5886 9.45382 21.6 11.9999 21.6C14.546 21.6 16.9878 20.5886 18.7881 18.7882C20.5885 16.9879 21.5999 14.5461 21.5999 12C21.5999 9.45395 20.5885 7.01215 18.7881 5.2118C16.9878 3.41145 14.546 2.40002 11.9999 2.40002ZM11.9999 4.80002C11.9087 4.80002 11.7215 4.83842 11.4419 5.11442C11.1563 5.39522 10.8455 5.86202 10.5575 6.53282C10.0907 7.62122 9.7499 9.10322 9.6383 10.8H14.3615C14.2499 9.10322 13.9091 7.62122 13.4423 6.53282C13.1543 5.86082 12.8423 5.39522 12.5579 5.11442C12.2783 4.83842 12.0911 4.80002 11.9999 4.80002ZM16.7651 10.8C16.6583 8.94482 16.3055 7.23602 15.7607 5.85842C16.6379 6.39593 17.3898 7.11505 17.9659 7.96743C18.5419 8.8198 18.9287 9.78566 19.1003 10.8H16.7651ZM14.3615 13.2H9.6383C9.7499 14.8968 10.0907 16.3788 10.5575 17.4672C10.8455 18.1392 11.1575 18.6048 11.4419 18.8856C11.7215 19.1616 11.9087 19.2 11.9999 19.2C12.0911 19.2 12.2783 19.1616 12.5579 18.8856C12.8435 18.6048 13.1555 18.138 13.4423 17.4672C13.9091 16.3788 14.2499 14.8968 14.3615 13.2ZM15.7607 18.1416C16.3055 16.7652 16.6583 15.0552 16.7651 13.2H19.1003C18.9287 14.2144 18.5419 15.1802 17.9659 16.0326C17.3898 16.885 16.6379 17.6041 15.7607 18.1416ZM8.2391 18.1416C7.6943 16.764 7.3415 15.0552 7.2359 13.2H4.8995C5.07108 14.2144 5.45791 15.1802 6.03395 16.0326C6.61 16.885 7.36191 17.6041 8.2391 18.1416Z" fill="#B1B8C0"/>
</svg>
